<?xml version="1.0" standalone="no"?>
<!DOCTYPE svg PUBLIC "-//W3C//DTD SVG 20010904//EN"
 "http://www.w3.org/TR/2001/REC-SVG-20010904/DTD/svg10.dtd">
<svg version="1.0" xmlns="http://www.w3.org/2000/svg"
 width="657.000000pt" height="657.000000pt" viewBox="0 0 657.000000 657.000000"
 preserveAspectRatio="xMidYMid meet">
<metadata>
Created by potrace 1.11, written by Peter Selinger 2001-2013
</metadata>
<g transform="translate(0.000000,657.000000) scale(0.100000,-0.100000)"
fill="#000000" stroke="none">
<path d="M2726 4258 c-411 -53 -740 -373 -822 -798 -17 -88 -20 -281 -4 -360
66 -341 253 -598 537 -739 489 -242 1084 -3 1291 520 53 133 67 217 66 389 -1
134 -5 169 -28 255 -126 479 -573 794 -1040 733z m309 -259 c248 -76 428 -258
507 -509 33 -108 33 -316 0 -443 -23 -85 -30 -101 -102 -212 -125 -194 -341
-319 -566 -329 -489 -22 -860 457 -734 949 65 256 249 456 495 539 114 39 284
41 400 5z"/>
<path d="M2509 3650 c-90 -26 -131 -122 -87 -204 50 -93 188 -91 240 4 22 41
19 104 -8 146 -28 42 -97 68 -145 54z"/>
<path d="M3125 3648 c-149 -53 -112 -274 46 -271 108 2 175 119 119 210 -32
53 -108 81 -165 61z"/>
<path d="M2320 3063 c0 -18 40 -109 65 -149 63 -98 156 -168 278 -209 61 -20
95 -25 174 -25 114 0 177 15 273 66 108 57 181 137 224 246 14 36 26 68 26 70
0 2 -28 3 -62 3 l-63 0 -28 -60 c-75 -159 -261 -246 -449 -211 -128 24 -234
102 -285 211 l-28 60 -63 0 c-34 1 -62 0 -62 -2z"/>
<path d="M1141 4241 c-11 -7 -10 -11 5 -19 18 -9 84 9 84 23 0 9 -74 5 -89 -4z"/>
<path d="M1389 4146 c20 -58 40 -108 43 -111 5 -5 208 -61 234 -65 1 0 -24 58
-55 129 -63 146 -48 134 -193 147 l-66 5 37 -105z"/>
<path d="M988 4218 c-36 -9 -36 -10 -35 -59 1 -27 3 -49 5 -49 4 0 147 72 152
77 9 8 -45 43 -65 42 -11 -1 -36 -5 -57 -11z"/>
<path d="M1251 4206 l-44 -23 54 -40 c89 -65 113 -79 106 -63 -3 8 -16 45 -28
83 -13 37 -28 67 -33 67 -6 -1 -31 -11 -55 -24z"/>
<path d="M1610 4211 c0 -12 101 -235 111 -246 5 -5 9 35 9 102 0 62 -3 114 -7
116 -20 12 -113 35 -113 28z"/>
<path d="M4010 4125 c0 -52 2 -95 5 -95 6 0 228 110 235 117 2 2 -4 19 -15 38
l-18 35 -104 0 -103 0 0 -95z"/>
<path d="M4270 4213 c0 -5 7 -17 15 -28 15 -19 16 -19 68 8 l52 27 -67 0 c-38
0 -68 -3 -68 -7z"/>
<path d="M4550 4217 c0 -3 36 -62 79 -132 l79 -126 41 122 c22 68 38 125 35
128 -7 7 -234 15 -234 8z"/>
<path d="M5690 3737 l0 -483 203 0 202 1 3 483 2 482 -205 0 -205 0 0 -483z"/>
<path d="M4387 4164 l-68 -35 27 -49 c15 -28 30 -50 33 -50 4 0 26 38 49 85
23 47 39 85 34 85 -4 -1 -38 -17 -75 -36z"/>
<path d="M820 4154 c-41 -19 -101 -55 -135 -78 -59 -43 -201 -183 -194 -191 3
-2 98 42 212 97 l207 102 0 53 c0 29 -4 53 -8 53 -4 0 -41 -16 -82 -36z"/>
<path d="M4458 4086 l-53 -108 22 -36 21 -37 118 -5 c66 -3 121 -4 123 -3 4 3
-61 113 -130 222 l-48 74 -53 -107z"/>
<path d="M4874 4158 c3 -18 9 -60 12 -93 4 -33 7 -61 8 -62 0 0 41 31 90 70
l89 72 -54 16 c-30 9 -76 20 -103 23 l-49 8 7 -34z"/>
<path d="M4782 4045 c-24 -74 -41 -139 -37 -145 4 -6 28 6 59 31 l53 41 -14
97 c-7 53 -14 99 -16 103 -1 4 -21 -53 -45 -127z"/>
<path d="M1176 4122 c-3 -15 -8 -58 -11 -97 -3 -38 -8 -86 -11 -105 l-5 -35
163 -1 c135 0 175 -4 231 -21 38 -12 65 -18 60 -14 -4 4 -55 41 -113 81 -58
41 -151 107 -207 146 l-102 73 -5 -27z"/>
<path d="M1035 4097 c-71 -37 -79 -45 -78 -69 0 -16 1 -75 2 -133 l1 -105 38
23 c20 13 53 30 73 37 36 13 36 14 43 84 17 181 18 206 10 206 -5 -1 -45 -20
-89 -43z"/>
<path d="M5034 4058 c-110 -85 -108 -81 -32 -74 88 8 94 11 123 61 30 50 30
52 6 64 -16 9 -32 0 -97 -51z"/>
<path d="M4142 4044 c-178 -85 -177 -89 8 -161 l135 -52 37 72 36 72 -26 48
c-54 95 -39 93 -190 21z"/>
<path d="M5178 4012 c-21 -15 -39 -32 -42 -38 -3 -9 186 -311 209 -332 4 -4 5
27 2 68 -8 113 -53 236 -109 302 l-23 27 -37 -27z"/>
<path d="M813 3992 c-29 -14 -53 -31 -53 -37 0 -21 79 -170 79 -150 1 11 12
64 25 118 15 63 19 97 12 96 -6 -1 -35 -13 -63 -27z"/>
<path d="M1535 3952 c22 -22 187 -134 191 -130 9 10 -37 97 -54 102 -9 3 -37
10 -62 16 -25 6 -54 14 -65 17 -13 3 -17 2 -10 -5z"/>
<path d="M889 3845 c-29 -126 -28 -147 8 -111 22 23 24 30 21 123 l-3 98 -26
-110z"/>
<path d="M591 3881 l-114 -57 161 -67 c88 -37 163 -67 165 -67 3 0 8 7 11 16
6 15 -91 235 -103 233 -3 0 -57 -26 -120 -58z"/>
<path d="M4890 3930 c-14 -3 -43 -18 -64 -35 l-38 -29 28 -22 28 -23 51 37
c28 20 64 47 80 60 l30 22 -45 -2 c-25 -1 -56 -5 -70 -8z"/>
<path d="M4356 3876 c-14 -31 -26 -58 -26 -60 0 -2 20 -11 45 -19 l45 -16 0
47 c0 29 -7 58 -19 76 l-19 29 -26 -57z"/>
<path d="M4962 3854 c-78 -56 -90 -68 -82 -84 5 -10 24 -23 42 -29 27 -10 34
-9 42 6 25 42 95 173 92 173 -1 0 -44 -30 -94 -66z"/>
<path d="M5053 3818 c-29 -56 -52 -102 -50 -103 5 -3 295 -95 299 -95 3 0 -39
68 -94 150 -54 83 -99 150 -101 150 -1 0 -26 -46 -54 -102z"/>
<path d="M4010 3824 l0 -69 93 -38 c50 -20 95 -37 99 -37 8 0 58 93 58 108 0
5 -48 27 -107 50 -60 22 -116 43 -125 47 -16 6 -18 0 -18 -61z"/>
<path d="M415 3769 c-4 -11 -5 -22 -3 -23 6 -5 233 -44 236 -41 4 4 -201 85
-215 85 -6 0 -15 -9 -18 -21z"/>
<path d="M4276 3718 c-16 -32 -27 -60 -25 -61 7 -5 158 -67 164 -67 3 0 5 33
5 73 l0 73 -58 21 -57 21 -29 -60z"/>
<path d="M362 3653 c-39 -108 -39 -106 0 -90 99 43 227 102 224 104 -1 2 -40
10 -87 18 -46 9 -91 18 -100 21 -12 3 -21 -10 -37 -53z"/>
<path d="M4010 3045 l0 -665 205 0 205 0 0 315 0 315 138 1 c75 0 144 2 152 3
8 2 42 7 75 11 72 9 174 39 235 70 58 30 174 115 166 122 -3 4 -90 41 -192 84
l-185 77 -47 -21 c-49 -21 -185 -35 -289 -29 l-52 3 -3 106 -3 105 -155 65
c-85 35 -176 73 -202 84 l-48 19 0 -665z"/>
<path d="M4910 3673 c0 -22 2 -25 10 -13 13 20 13 40 0 40 -5 0 -10 -12 -10
-27z"/>
<path d="M4955 3635 c-14 -24 -25 -47 -25 -50 0 -6 291 3 297 9 1 1 -54 20
-122 43 l-124 41 -26 -43z"/>
<path d="M535 3594 c-66 -30 -133 -61 -150 -70 l-30 -15 35 4 c19 3 113 13
209 23 l174 18 18 30 c10 17 15 33 11 37 -8 8 -105 29 -130 29 -9 -1 -71 -26
-137 -56z"/>
<path d="M5329 3556 c-2 -2 -69 -6 -148 -9 -79 -4 -146 -9 -149 -11 -3 -3 6
-10 19 -15 13 -5 76 -34 139 -64 63 -30 118 -53 122 -51 5 4 38 130 38 148 0
7 -14 8 -21 2z"/>
<path d="M4883 3471 c-17 -36 -31 -66 -30 -67 1 0 85 -35 187 -77 l185 -77
-55 53 c-30 28 -100 93 -155 143 l-100 91 -32 -66z"/>
<path d="M517 3485 c-108 -12 -200 -24 -203 -28 -3 -3 -9 -39 -13 -80 l-7 -74
71 30 c38 16 141 60 228 97 87 37 161 70 164 74 9 9 -18 7 -240 -19z"/>
<path d="M5051 3472 c0 -4 45 -46 99 -95 l99 -87 20 29 c12 16 21 32 21 35 0
4 -54 33 -120 65 -66 33 -120 56 -119 53z"/>
<path d="M550 3365 c-107 -46 -201 -84 -207 -85 -7 0 -13 -3 -13 -8 0 -4 89
-7 198 -8 l199 0 9 93 c5 51 9 93 9 93 0 -1 -88 -39 -195 -85z"/>
<path d="M303 3132 c11 -149 72 -325 151 -436 124 -174 308 -289 528 -331 215
-40 534 -14 698 56 l50 21 0 189 0 188 -74 -35 c-147 -67 -344 -95 -495 -68
-197 34 -353 181 -405 381 -9 34 -16 75 -16 92 l0 31 -221 0 -222 0 6 -88z"/>
<path d="M5690 3108 l1 -103 22 27 c12 14 50 60 85 102 l63 76 -85 0 -86 0 0
-102z"/>
<path d="M5832 3110 c-45 -55 -81 -100 -79 -100 2 0 80 31 173 69 164 67 169
70 172 100 l3 31 -93 0 -93 -1 -83 -99z"/>
<path d="M5891 3019 c-107 -43 -197 -82 -200 -85 -3 -4 14 -4 39 -1 25 4 63 9
85 11 22 3 91 12 153 21 62 8 117 15 122 15 6 0 10 27 10 60 0 33 -3 60 -7 59
-5 0 -95 -36 -202 -80z"/>
<path d="M5915 2915 c-88 -13 -162 -24 -165 -24 -7 -2 173 -131 182 -131 5 0
45 23 89 51 77 49 79 52 79 90 0 25 -4 39 -12 38 -7 -1 -85 -12 -173 -24z"/>
<path d="M5690 2802 l0 -67 163 -54 c89 -30 169 -56 177 -59 8 -3 -62 52 -157
121 -94 70 -174 127 -177 127 -3 0 -6 -30 -6 -68z"/>
<path d="M6037 2771 c-32 -21 -58 -42 -58 -45 0 -4 27 -27 61 -52 l60 -44 0
90 c0 50 -1 90 -2 90 -2 0 -29 -18 -61 -39z"/>
<path d="M5690 2657 c0 -18 18 -87 41 -154 l41 -123 66 0 67 0 90 81 c50 45
91 84 93 88 1 4 -78 34 -175 66 -248 83 -223 79 -223 42z"/>
<path d="M6034 2439 l-62 -54 60 -3 c33 -2 62 -1 65 1 2 3 3 29 1 58 l-3 53
-61 -55z"/>
<path d="M5690 2427 c0 -39 3 -47 19 -47 18 0 18 2 4 42 -20 58 -23 59 -23 5z"/>
</g>
</svg>
